<mxfile host="app.diagrams.net" agent="Mozilla/5.0 (X11; Linux x86_64; rv:144.0) Gecko/20100101 Firefox/144.0" version="28.2.7">
  <diagram name="Page-1" id="w3yQHS1Fflm7FkoIX6-7">
    <mxGraphModel dx="2170" dy="2791" grid="1" gridSize="10" guides="1" tooltips="1" connect="1" arrows="1" fold="1" page="1" pageScale="1" pageWidth="1169" pageHeight="827" math="0" shadow="0">
      <root>
        <mxCell id="0" />
        <mxCell id="1" parent="0" />
        <mxCell id="3PEWY301-TRtVZuDDNNP-1" value="MonoBehaviour" style="swimlane;fontStyle=1;align=center;verticalAlign=top;childLayout=stackLayout;horizontal=1;startSize=38;horizontalStack=0;resizeParent=1;resizeParentMax=0;resizeLast=0;collapsible=0;marginBottom=0;" parent="1" vertex="1">
          <mxGeometry x="1074.75" y="-156.24" width="145" height="32" as="geometry" />
        </mxCell>
        <mxCell id="3PEWY301-TRtVZuDDNNP-3" value="&lt;&lt;Interface&gt;&gt;&#xa;IActivateable" style="swimlane;fontStyle=1;align=center;verticalAlign=top;childLayout=stackLayout;horizontal=1;startSize=62.25;horizontalStack=0;resizeParent=1;resizeParentMax=0;resizeLast=0;collapsible=0;marginBottom=0;" parent="1" vertex="1">
          <mxGeometry x="380" y="162.67" width="195" height="146.25" as="geometry" />
        </mxCell>
        <mxCell id="3PEWY301-TRtVZuDDNNP-5" value="+ SetIsActive(isActive: bool) : void" style="text;strokeColor=none;fillColor=none;align=left;verticalAlign=top;spacingLeft=4;spacingRight=4;overflow=hidden;rotatable=0;points=[[0,0.5],[1,0.5]];portConstraint=eastwest;" parent="3PEWY301-TRtVZuDDNNP-3" vertex="1">
          <mxGeometry y="62.25" width="195" height="42" as="geometry" />
        </mxCell>
        <mxCell id="3PEWY301-TRtVZuDDNNP-6" value="+ ToggleIsActive() : void" style="text;strokeColor=none;fillColor=none;align=left;verticalAlign=top;spacingLeft=4;spacingRight=4;overflow=hidden;rotatable=0;points=[[0,0.5],[1,0.5]];portConstraint=eastwest;" parent="3PEWY301-TRtVZuDDNNP-3" vertex="1">
          <mxGeometry y="104.25" width="195" height="42" as="geometry" />
        </mxCell>
        <mxCell id="3PEWY301-TRtVZuDDNNP-7" value="&lt;&lt;Enumeration&gt;&gt;&#xa;ActivateableType" style="swimlane;fontStyle=1;align=center;verticalAlign=top;childLayout=stackLayout;horizontal=1;startSize=52;horizontalStack=0;resizeParent=1;resizeParentMax=0;resizeLast=0;collapsible=0;marginBottom=0;" parent="1" vertex="1">
          <mxGeometry x="500" y="350" width="130" height="192" as="geometry" />
        </mxCell>
        <mxCell id="3PEWY301-TRtVZuDDNNP-8" value="Switch" style="text;strokeColor=none;fillColor=none;align=left;verticalAlign=top;spacingLeft=4;spacingRight=4;overflow=hidden;rotatable=0;points=[[0,0.5],[1,0.5]];portConstraint=eastwest;" parent="3PEWY301-TRtVZuDDNNP-7" vertex="1">
          <mxGeometry y="52" width="130" height="35" as="geometry" />
        </mxCell>
        <mxCell id="3PEWY301-TRtVZuDDNNP-9" value="Button" style="text;strokeColor=none;fillColor=none;align=left;verticalAlign=top;spacingLeft=4;spacingRight=4;overflow=hidden;rotatable=0;points=[[0,0.5],[1,0.5]];portConstraint=eastwest;" parent="3PEWY301-TRtVZuDDNNP-7" vertex="1">
          <mxGeometry y="87" width="130" height="35" as="geometry" />
        </mxCell>
        <mxCell id="3PEWY301-TRtVZuDDNNP-10" value="PortalBlob" style="text;strokeColor=none;fillColor=none;align=left;verticalAlign=top;spacingLeft=4;spacingRight=4;overflow=hidden;rotatable=0;points=[[0,0.5],[1,0.5]];portConstraint=eastwest;" parent="3PEWY301-TRtVZuDDNNP-7" vertex="1">
          <mxGeometry y="122" width="130" height="35" as="geometry" />
        </mxCell>
        <mxCell id="3PEWY301-TRtVZuDDNNP-11" value="PortalBox" style="text;strokeColor=none;fillColor=none;align=left;verticalAlign=top;spacingLeft=4;spacingRight=4;overflow=hidden;rotatable=0;points=[[0,0.5],[1,0.5]];portConstraint=eastwest;" parent="3PEWY301-TRtVZuDDNNP-7" vertex="1">
          <mxGeometry y="157" width="130" height="35" as="geometry" />
        </mxCell>
        <mxCell id="3PEWY301-TRtVZuDDNNP-13" value="Activateable" style="swimlane;fontStyle=1;align=center;verticalAlign=top;childLayout=stackLayout;horizontal=1;startSize=30.4;horizontalStack=0;resizeParent=1;resizeParentMax=0;resizeLast=0;collapsible=0;marginBottom=0;" parent="1" vertex="1">
          <mxGeometry x="-40" y="-240.44" width="420" height="308.4" as="geometry" />
        </mxCell>
        <mxCell id="3PEWY301-TRtVZuDDNNP-14" value="+ IsActive : bool = true" style="text;strokeColor=none;fillColor=none;align=left;verticalAlign=top;spacingLeft=4;spacingRight=4;overflow=hidden;rotatable=0;points=[[0,0.5],[1,0.5]];portConstraint=eastwest;" parent="3PEWY301-TRtVZuDDNNP-13" vertex="1">
          <mxGeometry y="30.4" width="420" height="30" as="geometry" />
        </mxCell>
        <mxCell id="3PEWY301-TRtVZuDDNNP-15" value="- State: enum = On, Off" style="text;strokeColor=none;fillColor=none;align=left;verticalAlign=top;spacingLeft=4;spacingRight=4;overflow=hidden;rotatable=0;points=[[0,0.5],[1,0.5]];portConstraint=eastwest;" parent="3PEWY301-TRtVZuDDNNP-13" vertex="1">
          <mxGeometry y="60.4" width="420" height="30" as="geometry" />
        </mxCell>
        <mxCell id="3PEWY301-TRtVZuDDNNP-16" value="- _state: State" style="text;strokeColor=none;fillColor=none;align=left;verticalAlign=top;spacingLeft=4;spacingRight=4;overflow=hidden;rotatable=0;points=[[0,0.5],[1,0.5]];portConstraint=eastwest;" parent="3PEWY301-TRtVZuDDNNP-13" vertex="1">
          <mxGeometry y="90.4" width="420" height="30" as="geometry" />
        </mxCell>
        <mxCell id="3PEWY301-TRtVZuDDNNP-17" value="- _type: ActivateableType [readonly]" style="text;strokeColor=none;fillColor=none;align=left;verticalAlign=top;spacingLeft=4;spacingRight=4;overflow=hidden;rotatable=0;points=[[0,0.5],[1,0.5]];portConstraint=eastwest;" parent="3PEWY301-TRtVZuDDNNP-13" vertex="1">
          <mxGeometry y="120.4" width="420" height="30" as="geometry" />
        </mxCell>
        <mxCell id="3PEWY301-TRtVZuDDNNP-18" value="- _resolver: SpriteResolver [readonly]" style="text;strokeColor=none;fillColor=none;align=left;verticalAlign=top;spacingLeft=4;spacingRight=4;overflow=hidden;rotatable=0;points=[[0,0.5],[1,0.5]];portConstraint=eastwest;" parent="3PEWY301-TRtVZuDDNNP-13" vertex="1">
          <mxGeometry y="150.4" width="420" height="30" as="geometry" />
        </mxCell>
        <mxCell id="3PEWY301-TRtVZuDDNNP-19" style="line;strokeWidth=1;fillColor=none;align=left;verticalAlign=middle;spacingTop=-1;spacingLeft=3;spacingRight=3;rotatable=0;labelPosition=right;points=[];portConstraint=eastwest;strokeColor=inherit;" parent="3PEWY301-TRtVZuDDNNP-13" vertex="1">
          <mxGeometry y="180.4" width="420" height="8" as="geometry" />
        </mxCell>
        <mxCell id="3PEWY301-TRtVZuDDNNP-20" value="+ Activateable(type: ActivateableType, resolver: Spriteresolver) : Activateable" style="text;strokeColor=none;fillColor=none;align=left;verticalAlign=top;spacingLeft=4;spacingRight=4;overflow=hidden;rotatable=0;points=[[0,0.5],[1,0.5]];portConstraint=eastwest;" parent="3PEWY301-TRtVZuDDNNP-13" vertex="1">
          <mxGeometry y="188.4" width="420" height="30" as="geometry" />
        </mxCell>
        <mxCell id="3PEWY301-TRtVZuDDNNP-21" value="+ SetIsActive(isActive: bool) : void" style="text;strokeColor=none;fillColor=none;align=left;verticalAlign=top;spacingLeft=4;spacingRight=4;overflow=hidden;rotatable=0;points=[[0,0.5],[1,0.5]];portConstraint=eastwest;" parent="3PEWY301-TRtVZuDDNNP-13" vertex="1">
          <mxGeometry y="218.4" width="420" height="30" as="geometry" />
        </mxCell>
        <mxCell id="3PEWY301-TRtVZuDDNNP-22" value="+ ToggleIsActive() : void" style="text;strokeColor=none;fillColor=none;align=left;verticalAlign=top;spacingLeft=4;spacingRight=4;overflow=hidden;rotatable=0;points=[[0,0.5],[1,0.5]];portConstraint=eastwest;" parent="3PEWY301-TRtVZuDDNNP-13" vertex="1">
          <mxGeometry y="248.4" width="420" height="30" as="geometry" />
        </mxCell>
        <mxCell id="3PEWY301-TRtVZuDDNNP-23" value="- UpdateState() : void" style="text;strokeColor=none;fillColor=none;align=left;verticalAlign=top;spacingLeft=4;spacingRight=4;overflow=hidden;rotatable=0;points=[[0,0.5],[1,0.5]];portConstraint=eastwest;" parent="3PEWY301-TRtVZuDDNNP-13" vertex="1">
          <mxGeometry y="278.4" width="420" height="30" as="geometry" />
        </mxCell>
        <mxCell id="3PEWY301-TRtVZuDDNNP-24" value="&lt;&lt;Interface&gt;&gt;&#xa;IInteractable" style="swimlane;fontStyle=1;align=center;verticalAlign=top;childLayout=stackLayout;horizontal=1;startSize=71;horizontalStack=0;resizeParent=1;resizeParentMax=0;resizeLast=0;collapsible=0;marginBottom=0;" parent="1" vertex="1">
          <mxGeometry x="390" y="-710" width="220" height="118" as="geometry" />
        </mxCell>
        <mxCell id="3PEWY301-TRtVZuDDNNP-26" value="Interact(phase: InputActionPhase) : void" style="text;strokeColor=none;fillColor=none;align=left;verticalAlign=top;spacingLeft=4;spacingRight=4;overflow=hidden;rotatable=0;points=[[0,0.5],[1,0.5]];portConstraint=eastwest;" parent="3PEWY301-TRtVZuDDNNP-24" vertex="1">
          <mxGeometry y="71" width="220" height="47" as="geometry" />
        </mxCell>
        <mxCell id="3PEWY301-TRtVZuDDNNP-27" value="&lt;&lt;Abstract&gt;&gt;&#xa;Teleportation" style="swimlane;fontStyle=1;align=center;verticalAlign=top;childLayout=stackLayout;horizontal=1;startSize=53.53846153846154;horizontalStack=0;resizeParent=1;resizeParentMax=0;resizeLast=0;collapsible=0;marginBottom=0;" parent="1" vertex="1">
          <mxGeometry x="929.75" y="-524.5699999999999" width="290" height="241.53846153846155" as="geometry" />
        </mxCell>
        <mxCell id="3PEWY301-TRtVZuDDNNP-28" value="+ teleportOutput: GameObject" style="text;strokeColor=none;fillColor=none;align=left;verticalAlign=top;spacingLeft=4;spacingRight=4;overflow=hidden;rotatable=0;points=[[0,0.5],[1,0.5]];portConstraint=eastwest;" parent="3PEWY301-TRtVZuDDNNP-27" vertex="1">
          <mxGeometry y="53.53846153846154" width="290" height="36" as="geometry" />
        </mxCell>
        <mxCell id="3PEWY301-TRtVZuDDNNP-29" value="# ToTeleport: Collider2D" style="text;strokeColor=none;fillColor=none;align=left;verticalAlign=top;spacingLeft=4;spacingRight=4;overflow=hidden;rotatable=0;points=[[0,0.5],[1,0.5]];portConstraint=eastwest;" parent="3PEWY301-TRtVZuDDNNP-27" vertex="1">
          <mxGeometry y="89.53846153846155" width="290" height="36" as="geometry" />
        </mxCell>
        <mxCell id="3PEWY301-TRtVZuDDNNP-30" style="line;strokeWidth=1;fillColor=none;align=left;verticalAlign=middle;spacingTop=-1;spacingLeft=3;spacingRight=3;rotatable=0;labelPosition=right;points=[];portConstraint=eastwest;strokeColor=inherit;" parent="3PEWY301-TRtVZuDDNNP-27" vertex="1">
          <mxGeometry y="125.53846153846155" width="290" height="8" as="geometry" />
        </mxCell>
        <mxCell id="3PEWY301-TRtVZuDDNNP-31" value="+ Teleport() : void [virtual]" style="text;strokeColor=none;fillColor=none;align=left;verticalAlign=top;spacingLeft=4;spacingRight=4;overflow=hidden;rotatable=0;points=[[0,0.5],[1,0.5]];portConstraint=eastwest;" parent="3PEWY301-TRtVZuDDNNP-27" vertex="1">
          <mxGeometry y="133.53846153846155" width="290" height="36" as="geometry" />
        </mxCell>
        <mxCell id="3PEWY301-TRtVZuDDNNP-32" value="# OnTriggerEnter2D(other: Collider2D) : void [virtual]" style="text;strokeColor=none;fillColor=none;align=left;verticalAlign=top;spacingLeft=4;spacingRight=4;overflow=hidden;rotatable=0;points=[[0,0.5],[1,0.5]];portConstraint=eastwest;" parent="3PEWY301-TRtVZuDDNNP-27" vertex="1">
          <mxGeometry y="169.53846153846155" width="290" height="36" as="geometry" />
        </mxCell>
        <mxCell id="3PEWY301-TRtVZuDDNNP-33" value="# OnTriggerExit2D(other: Collider2D) : void [virtual]" style="text;strokeColor=none;fillColor=none;align=left;verticalAlign=top;spacingLeft=4;spacingRight=4;overflow=hidden;rotatable=0;points=[[0,0.5],[1,0.5]];portConstraint=eastwest;" parent="3PEWY301-TRtVZuDDNNP-27" vertex="1">
          <mxGeometry y="205.53846153846155" width="290" height="36" as="geometry" />
        </mxCell>
        <mxCell id="3PEWY301-TRtVZuDDNNP-34" value="BlobMover" style="swimlane;fontStyle=1;align=center;verticalAlign=top;childLayout=stackLayout;horizontal=1;startSize=29.333333333333332;horizontalStack=0;resizeParent=1;resizeParentMax=0;resizeLast=0;collapsible=0;marginBottom=0;" parent="1" vertex="1">
          <mxGeometry x="750" y="69.99999999999999" width="405.5" height="356.3333333333333" as="geometry" />
        </mxCell>
        <mxCell id="3PEWY301-TRtVZuDDNNP-35" value="- _isActive: bool" style="text;strokeColor=none;fillColor=none;align=left;verticalAlign=top;spacingLeft=4;spacingRight=4;overflow=hidden;rotatable=0;points=[[0,0.5],[1,0.5]];portConstraint=eastwest;" parent="3PEWY301-TRtVZuDDNNP-34" vertex="1">
          <mxGeometry y="29.333333333333332" width="405.5" height="29" as="geometry" />
        </mxCell>
        <mxCell id="3PEWY301-TRtVZuDDNNP-36" value="- _blobCounter: int" style="text;strokeColor=none;fillColor=none;align=left;verticalAlign=top;spacingLeft=4;spacingRight=4;overflow=hidden;rotatable=0;points=[[0,0.5],[1,0.5]];portConstraint=eastwest;" parent="3PEWY301-TRtVZuDDNNP-34" vertex="1">
          <mxGeometry y="58.33333333333333" width="405.5" height="29" as="geometry" />
        </mxCell>
        <mxCell id="3PEWY301-TRtVZuDDNNP-37" value="- _stations: Station[]" style="text;strokeColor=none;fillColor=none;align=left;verticalAlign=top;spacingLeft=4;spacingRight=4;overflow=hidden;rotatable=0;points=[[0,0.5],[1,0.5]];portConstraint=eastwest;" parent="3PEWY301-TRtVZuDDNNP-34" vertex="1">
          <mxGeometry y="87.33333333333333" width="405.5" height="29" as="geometry" />
        </mxCell>
        <mxCell id="3PEWY301-TRtVZuDDNNP-38" value="- _resolvers: SpriteResolver[]" style="text;strokeColor=none;fillColor=none;align=left;verticalAlign=top;spacingLeft=4;spacingRight=4;overflow=hidden;rotatable=0;points=[[0,0.5],[1,0.5]];portConstraint=eastwest;" parent="3PEWY301-TRtVZuDDNNP-34" vertex="1">
          <mxGeometry y="116.33333333333333" width="405.5" height="29" as="geometry" />
        </mxCell>
        <mxCell id="3PEWY301-TRtVZuDDNNP-39" style="line;strokeWidth=1;fillColor=none;align=left;verticalAlign=middle;spacingTop=-1;spacingLeft=3;spacingRight=3;rotatable=0;labelPosition=right;points=[];portConstraint=eastwest;strokeColor=inherit;" parent="3PEWY301-TRtVZuDDNNP-34" vertex="1">
          <mxGeometry y="145.33333333333331" width="405.5" height="8" as="geometry" />
        </mxCell>
        <mxCell id="3PEWY301-TRtVZuDDNNP-40" value="- _activateables: List&lt;Activateable&lt; = new List&gt;Activateable&gt;() : [readonly]" style="text;strokeColor=none;fillColor=none;align=left;verticalAlign=top;spacingLeft=4;spacingRight=4;overflow=hidden;rotatable=0;points=[[0,0.5],[1,0.5]];portConstraint=eastwest;" parent="3PEWY301-TRtVZuDDNNP-34" vertex="1">
          <mxGeometry y="153.33333333333331" width="405.5" height="29" as="geometry" />
        </mxCell>
        <mxCell id="3PEWY301-TRtVZuDDNNP-41" value="+ MoveBlobs() : void" style="text;strokeColor=none;fillColor=none;align=left;verticalAlign=top;spacingLeft=4;spacingRight=4;overflow=hidden;rotatable=0;points=[[0,0.5],[1,0.5]];portConstraint=eastwest;" parent="3PEWY301-TRtVZuDDNNP-34" vertex="1">
          <mxGeometry y="182.33333333333331" width="405.5" height="29" as="geometry" />
        </mxCell>
        <mxCell id="3PEWY301-TRtVZuDDNNP-42" value="+ IncrementBlobCounter() : void" style="text;strokeColor=none;fillColor=none;align=left;verticalAlign=top;spacingLeft=4;spacingRight=4;overflow=hidden;rotatable=0;points=[[0,0.5],[1,0.5]];portConstraint=eastwest;" parent="3PEWY301-TRtVZuDDNNP-34" vertex="1">
          <mxGeometry y="211.33333333333331" width="405.5" height="29" as="geometry" />
        </mxCell>
        <mxCell id="3PEWY301-TRtVZuDDNNP-43" value="+ DecrementBlobCounter() : void" style="text;strokeColor=none;fillColor=none;align=left;verticalAlign=top;spacingLeft=4;spacingRight=4;overflow=hidden;rotatable=0;points=[[0,0.5],[1,0.5]];portConstraint=eastwest;" parent="3PEWY301-TRtVZuDDNNP-34" vertex="1">
          <mxGeometry y="240.33333333333331" width="405.5" height="29" as="geometry" />
        </mxCell>
        <mxCell id="3PEWY301-TRtVZuDDNNP-44" value="+ ToggleIsActive() : void" style="text;strokeColor=none;fillColor=none;align=left;verticalAlign=top;spacingLeft=4;spacingRight=4;overflow=hidden;rotatable=0;points=[[0,0.5],[1,0.5]];portConstraint=eastwest;" parent="3PEWY301-TRtVZuDDNNP-34" vertex="1">
          <mxGeometry y="269.3333333333333" width="405.5" height="29" as="geometry" />
        </mxCell>
        <mxCell id="3PEWY301-TRtVZuDDNNP-45" value="+ SetIsActive(isActive: bool) : void" style="text;strokeColor=none;fillColor=none;align=left;verticalAlign=top;spacingLeft=4;spacingRight=4;overflow=hidden;rotatable=0;points=[[0,0.5],[1,0.5]];portConstraint=eastwest;" parent="3PEWY301-TRtVZuDDNNP-34" vertex="1">
          <mxGeometry y="298.3333333333333" width="405.5" height="29" as="geometry" />
        </mxCell>
        <mxCell id="3PEWY301-TRtVZuDDNNP-46" value="- Awake() : void" style="text;strokeColor=none;fillColor=none;align=left;verticalAlign=top;spacingLeft=4;spacingRight=4;overflow=hidden;rotatable=0;points=[[0,0.5],[1,0.5]];portConstraint=eastwest;" parent="3PEWY301-TRtVZuDDNNP-34" vertex="1">
          <mxGeometry y="327.3333333333333" width="405.5" height="29" as="geometry" />
        </mxCell>
        <mxCell id="3PEWY301-TRtVZuDDNNP-47" value="Station" style="swimlane;fontStyle=1;align=center;verticalAlign=top;childLayout=stackLayout;horizontal=1;startSize=34.666666666666664;horizontalStack=0;resizeParent=1;resizeParentMax=0;resizeLast=0;collapsible=0;marginBottom=0;" parent="1" vertex="1">
          <mxGeometry x="855.5" y="-1000" width="300" height="217.66666666666666" as="geometry" />
        </mxCell>
        <mxCell id="3PEWY301-TRtVZuDDNNP-48" value="- _parentMover: BlobMover" style="text;strokeColor=none;fillColor=none;align=left;verticalAlign=top;spacingLeft=4;spacingRight=4;overflow=hidden;rotatable=0;points=[[0,0.5],[1,0.5]];portConstraint=eastwest;" parent="3PEWY301-TRtVZuDDNNP-47" vertex="1">
          <mxGeometry y="34.666666666666664" width="300" height="35" as="geometry" />
        </mxCell>
        <mxCell id="3PEWY301-TRtVZuDDNNP-49" style="line;strokeWidth=1;fillColor=none;align=left;verticalAlign=middle;spacingTop=-1;spacingLeft=3;spacingRight=3;rotatable=0;labelPosition=right;points=[];portConstraint=eastwest;strokeColor=inherit;" parent="3PEWY301-TRtVZuDDNNP-47" vertex="1">
          <mxGeometry y="69.66666666666666" width="300" height="8" as="geometry" />
        </mxCell>
        <mxCell id="3PEWY301-TRtVZuDDNNP-50" value="+ Interact(phase: InputActionPhase) : void" style="text;strokeColor=none;fillColor=none;align=left;verticalAlign=top;spacingLeft=4;spacingRight=4;overflow=hidden;rotatable=0;points=[[0,0.5],[1,0.5]];portConstraint=eastwest;" parent="3PEWY301-TRtVZuDDNNP-47" vertex="1">
          <mxGeometry y="77.66666666666666" width="300" height="35" as="geometry" />
        </mxCell>
        <mxCell id="3PEWY301-TRtVZuDDNNP-51" value="# OnTriggerEnter2D(other: Collider2D) : void [override]" style="text;strokeColor=none;fillColor=none;align=left;verticalAlign=top;spacingLeft=4;spacingRight=4;overflow=hidden;rotatable=0;points=[[0,0.5],[1,0.5]];portConstraint=eastwest;" parent="3PEWY301-TRtVZuDDNNP-47" vertex="1">
          <mxGeometry y="112.66666666666666" width="300" height="35" as="geometry" />
        </mxCell>
        <mxCell id="3PEWY301-TRtVZuDDNNP-52" value="# OnTriggerExit2D(other: Collider2D) : void [override]" style="text;strokeColor=none;fillColor=none;align=left;verticalAlign=top;spacingLeft=4;spacingRight=4;overflow=hidden;rotatable=0;points=[[0,0.5],[1,0.5]];portConstraint=eastwest;" parent="3PEWY301-TRtVZuDDNNP-47" vertex="1">
          <mxGeometry y="147.66666666666666" width="300" height="35" as="geometry" />
        </mxCell>
        <mxCell id="3PEWY301-TRtVZuDDNNP-53" value="- Awake() : void" style="text;strokeColor=none;fillColor=none;align=left;verticalAlign=top;spacingLeft=4;spacingRight=4;overflow=hidden;rotatable=0;points=[[0,0.5],[1,0.5]];portConstraint=eastwest;" parent="3PEWY301-TRtVZuDDNNP-47" vertex="1">
          <mxGeometry y="182.66666666666666" width="300" height="35" as="geometry" />
        </mxCell>
        <mxCell id="3PEWY301-TRtVZuDDNNP-54" value="ButtonSwitch" style="swimlane;fontStyle=1;align=center;verticalAlign=top;childLayout=stackLayout;horizontal=1;startSize=30.4;horizontalStack=0;resizeParent=1;resizeParentMax=0;resizeLast=0;collapsible=0;marginBottom=0;" parent="1" vertex="1">
          <mxGeometry x="490" y="-308" width="270" height="308.4" as="geometry" />
        </mxCell>
        <mxCell id="3PEWY301-TRtVZuDDNNP-55" value="+ toActivate: GameObject" style="text;strokeColor=none;fillColor=none;align=left;verticalAlign=top;spacingLeft=4;spacingRight=4;overflow=hidden;rotatable=0;points=[[0,0.5],[1,0.5]];portConstraint=eastwest;" parent="3PEWY301-TRtVZuDDNNP-54" vertex="1">
          <mxGeometry y="30.4" width="270" height="30" as="geometry" />
        </mxCell>
        <mxCell id="3PEWY301-TRtVZuDDNNP-56" value="# Type: ActivateableType" style="text;strokeColor=none;fillColor=none;align=left;verticalAlign=top;spacingLeft=4;spacingRight=4;overflow=hidden;rotatable=0;points=[[0,0.5],[1,0.5]];portConstraint=eastwest;" parent="3PEWY301-TRtVZuDDNNP-54" vertex="1">
          <mxGeometry y="60.4" width="270" height="30" as="geometry" />
        </mxCell>
        <mxCell id="3PEWY301-TRtVZuDDNNP-57" value="- _toActivate: IActivateable" style="text;strokeColor=none;fillColor=none;align=left;verticalAlign=top;spacingLeft=4;spacingRight=4;overflow=hidden;rotatable=0;points=[[0,0.5],[1,0.5]];portConstraint=eastwest;" parent="3PEWY301-TRtVZuDDNNP-54" vertex="1">
          <mxGeometry y="90.4" width="270" height="30" as="geometry" />
        </mxCell>
        <mxCell id="3PEWY301-TRtVZuDDNNP-58" value="- _resolver: SpriteResolver" style="text;strokeColor=none;fillColor=none;align=left;verticalAlign=top;spacingLeft=4;spacingRight=4;overflow=hidden;rotatable=0;points=[[0,0.5],[1,0.5]];portConstraint=eastwest;" parent="3PEWY301-TRtVZuDDNNP-54" vertex="1">
          <mxGeometry y="120.4" width="270" height="30" as="geometry" />
        </mxCell>
        <mxCell id="3PEWY301-TRtVZuDDNNP-59" value="- _activateable: Activateable" style="text;strokeColor=none;fillColor=none;align=left;verticalAlign=top;spacingLeft=4;spacingRight=4;overflow=hidden;rotatable=0;points=[[0,0.5],[1,0.5]];portConstraint=eastwest;" parent="3PEWY301-TRtVZuDDNNP-54" vertex="1">
          <mxGeometry y="150.4" width="270" height="30" as="geometry" />
        </mxCell>
        <mxCell id="3PEWY301-TRtVZuDDNNP-60" style="line;strokeWidth=1;fillColor=none;align=left;verticalAlign=middle;spacingTop=-1;spacingLeft=3;spacingRight=3;rotatable=0;labelPosition=right;points=[];portConstraint=eastwest;strokeColor=inherit;" parent="3PEWY301-TRtVZuDDNNP-54" vertex="1">
          <mxGeometry y="180.4" width="270" height="8" as="geometry" />
        </mxCell>
        <mxCell id="3PEWY301-TRtVZuDDNNP-61" value="+ ToggleIsActive() : void" style="text;strokeColor=none;fillColor=none;align=left;verticalAlign=top;spacingLeft=4;spacingRight=4;overflow=hidden;rotatable=0;points=[[0,0.5],[1,0.5]];portConstraint=eastwest;" parent="3PEWY301-TRtVZuDDNNP-54" vertex="1">
          <mxGeometry y="188.4" width="270" height="30" as="geometry" />
        </mxCell>
        <mxCell id="3PEWY301-TRtVZuDDNNP-62" value="+ SetIsActive(bool: isActive) : void" style="text;strokeColor=none;fillColor=none;align=left;verticalAlign=top;spacingLeft=4;spacingRight=4;overflow=hidden;rotatable=0;points=[[0,0.5],[1,0.5]];portConstraint=eastwest;" parent="3PEWY301-TRtVZuDDNNP-54" vertex="1">
          <mxGeometry y="218.4" width="270" height="30" as="geometry" />
        </mxCell>
        <mxCell id="3PEWY301-TRtVZuDDNNP-63" value="+ Interact(phase: InputActionPhase) : void [virtual]" style="text;strokeColor=none;fillColor=none;align=left;verticalAlign=top;spacingLeft=4;spacingRight=4;overflow=hidden;rotatable=0;points=[[0,0.5],[1,0.5]];portConstraint=eastwest;" parent="3PEWY301-TRtVZuDDNNP-54" vertex="1">
          <mxGeometry y="248.4" width="270" height="30" as="geometry" />
        </mxCell>
        <mxCell id="3PEWY301-TRtVZuDDNNP-64" value="# Start() : void [virtual]" style="text;strokeColor=none;fillColor=none;align=left;verticalAlign=top;spacingLeft=4;spacingRight=4;overflow=hidden;rotatable=0;points=[[0,0.5],[1,0.5]];portConstraint=eastwest;" parent="3PEWY301-TRtVZuDDNNP-54" vertex="1">
          <mxGeometry y="278.4" width="270" height="30" as="geometry" />
        </mxCell>
        <mxCell id="3PEWY301-TRtVZuDDNNP-65" value="Button" style="swimlane;fontStyle=1;align=center;verticalAlign=top;childLayout=stackLayout;horizontal=1;startSize=40.57142857142857;horizontalStack=0;resizeParent=1;resizeParentMax=0;resizeLast=0;collapsible=0;marginBottom=0;" parent="1" vertex="1">
          <mxGeometry x="40" y="-380.00000000000006" width="290" height="122.57142857142857" as="geometry" />
        </mxCell>
        <mxCell id="3PEWY301-TRtVZuDDNNP-67" value="+ Interact(phase: InputActionPhase) : void [override]" style="text;strokeColor=none;fillColor=none;align=left;verticalAlign=top;spacingLeft=4;spacingRight=4;overflow=hidden;rotatable=0;points=[[0,0.5],[1,0.5]];portConstraint=eastwest;" parent="3PEWY301-TRtVZuDDNNP-65" vertex="1">
          <mxGeometry y="40.57142857142857" width="290" height="41" as="geometry" />
        </mxCell>
        <mxCell id="3PEWY301-TRtVZuDDNNP-68" value="# Start() : void" style="text;strokeColor=none;fillColor=none;align=left;verticalAlign=top;spacingLeft=4;spacingRight=4;overflow=hidden;rotatable=0;points=[[0,0.5],[1,0.5]];portConstraint=eastwest;" parent="3PEWY301-TRtVZuDDNNP-65" vertex="1">
          <mxGeometry y="81.57142857142857" width="290" height="41" as="geometry" />
        </mxCell>
        <mxCell id="3PEWY301-TRtVZuDDNNP-69" value="Switch" style="swimlane;fontStyle=1;align=center;verticalAlign=top;childLayout=stackLayout;horizontal=1;startSize=40.57142857142857;horizontalStack=0;resizeParent=1;resizeParentMax=0;resizeLast=0;collapsible=0;marginBottom=0;" parent="1" vertex="1">
          <mxGeometry x="280" y="-524.5699999999999" width="290" height="122.57142857142857" as="geometry" />
        </mxCell>
        <mxCell id="3PEWY301-TRtVZuDDNNP-71" value="+ Interact(phase: InputActionPhase) : void [override]" style="text;strokeColor=none;fillColor=none;align=left;verticalAlign=top;spacingLeft=4;spacingRight=4;overflow=hidden;rotatable=0;points=[[0,0.5],[1,0.5]];portConstraint=eastwest;" parent="3PEWY301-TRtVZuDDNNP-69" vertex="1">
          <mxGeometry y="40.57142857142857" width="290" height="41" as="geometry" />
        </mxCell>
        <mxCell id="3PEWY301-TRtVZuDDNNP-72" value="# Start() : void" style="text;strokeColor=none;fillColor=none;align=left;verticalAlign=top;spacingLeft=4;spacingRight=4;overflow=hidden;rotatable=0;points=[[0,0.5],[1,0.5]];portConstraint=eastwest;" parent="3PEWY301-TRtVZuDDNNP-69" vertex="1">
          <mxGeometry y="81.57142857142857" width="290" height="41" as="geometry" />
        </mxCell>
        <mxCell id="3PEWY301-TRtVZuDDNNP-73" value="PlayerInteract" style="swimlane;fontStyle=1;align=center;verticalAlign=top;childLayout=stackLayout;horizontal=1;startSize=36.8;horizontalStack=0;resizeParent=1;resizeParentMax=0;resizeLast=0;collapsible=0;marginBottom=0;" parent="1" vertex="1">
          <mxGeometry x="1240" y="162.67" width="321" height="192.8" as="geometry" />
        </mxCell>
        <mxCell id="3PEWY301-TRtVZuDDNNP-74" value="- _currentInteractable: IInteractable" style="text;strokeColor=none;fillColor=none;align=left;verticalAlign=top;spacingLeft=4;spacingRight=4;overflow=hidden;rotatable=0;points=[[0,0.5],[1,0.5]];portConstraint=eastwest;" parent="3PEWY301-TRtVZuDDNNP-73" vertex="1">
          <mxGeometry y="36.8" width="321" height="37" as="geometry" />
        </mxCell>
        <mxCell id="3PEWY301-TRtVZuDDNNP-75" style="line;strokeWidth=1;fillColor=none;align=left;verticalAlign=middle;spacingTop=-1;spacingLeft=3;spacingRight=3;rotatable=0;labelPosition=right;points=[];portConstraint=eastwest;strokeColor=inherit;" parent="3PEWY301-TRtVZuDDNNP-73" vertex="1">
          <mxGeometry y="73.8" width="321" height="8" as="geometry" />
        </mxCell>
        <mxCell id="3PEWY301-TRtVZuDDNNP-76" value="+ OnInteract(context: InputAction.CallbackContext) : void" style="text;strokeColor=none;fillColor=none;align=left;verticalAlign=top;spacingLeft=4;spacingRight=4;overflow=hidden;rotatable=0;points=[[0,0.5],[1,0.5]];portConstraint=eastwest;" parent="3PEWY301-TRtVZuDDNNP-73" vertex="1">
          <mxGeometry y="81.8" width="321" height="37" as="geometry" />
        </mxCell>
        <mxCell id="3PEWY301-TRtVZuDDNNP-77" value="- OnTriggerEnter2D(other: Collider2D) : void" style="text;strokeColor=none;fillColor=none;align=left;verticalAlign=top;spacingLeft=4;spacingRight=4;overflow=hidden;rotatable=0;points=[[0,0.5],[1,0.5]];portConstraint=eastwest;" parent="3PEWY301-TRtVZuDDNNP-73" vertex="1">
          <mxGeometry y="118.8" width="321" height="37" as="geometry" />
        </mxCell>
        <mxCell id="3PEWY301-TRtVZuDDNNP-78" value="- OnTriggerExit2D(other: Collider2D) : void" style="text;strokeColor=none;fillColor=none;align=left;verticalAlign=top;spacingLeft=4;spacingRight=4;overflow=hidden;rotatable=0;points=[[0,0.5],[1,0.5]];portConstraint=eastwest;" parent="3PEWY301-TRtVZuDDNNP-73" vertex="1">
          <mxGeometry y="155.8" width="321" height="37" as="geometry" />
        </mxCell>
        <mxCell id="3PEWY301-TRtVZuDDNNP-79" value="PlayerMovement" style="swimlane;fontStyle=1;align=center;verticalAlign=top;childLayout=stackLayout;horizontal=1;startSize=27.764705882352942;horizontalStack=0;resizeParent=1;resizeParentMax=0;resizeLast=0;collapsible=0;marginBottom=0;" parent="1" vertex="1">
          <mxGeometry x="1720" y="-380" width="300" height="483.7647058823529" as="geometry" />
        </mxCell>
        <mxCell id="3PEWY301-TRtVZuDDNNP-80" value="+ moveSpeed: float = 5f" style="text;strokeColor=none;fillColor=none;align=left;verticalAlign=top;spacingLeft=4;spacingRight=4;overflow=hidden;rotatable=0;points=[[0,0.5],[1,0.5]];portConstraint=eastwest;" parent="3PEWY301-TRtVZuDDNNP-79" vertex="1">
          <mxGeometry y="27.764705882352942" width="300" height="28" as="geometry" />
        </mxCell>
        <mxCell id="3PEWY301-TRtVZuDDNNP-81" value="+ jumpForce: float = 10f" style="text;strokeColor=none;fillColor=none;align=left;verticalAlign=top;spacingLeft=4;spacingRight=4;overflow=hidden;rotatable=0;points=[[0,0.5],[1,0.5]];portConstraint=eastwest;" parent="3PEWY301-TRtVZuDDNNP-79" vertex="1">
          <mxGeometry y="55.76470588235294" width="300" height="28" as="geometry" />
        </mxCell>
        <mxCell id="3PEWY301-TRtVZuDDNNP-82" value="+ boxSize: Vector2" style="text;strokeColor=none;fillColor=none;align=left;verticalAlign=top;spacingLeft=4;spacingRight=4;overflow=hidden;rotatable=0;points=[[0,0.5],[1,0.5]];portConstraint=eastwest;" parent="3PEWY301-TRtVZuDDNNP-79" vertex="1">
          <mxGeometry y="83.76470588235294" width="300" height="28" as="geometry" />
        </mxCell>
        <mxCell id="3PEWY301-TRtVZuDDNNP-83" value="+ castDistance: float" style="text;strokeColor=none;fillColor=none;align=left;verticalAlign=top;spacingLeft=4;spacingRight=4;overflow=hidden;rotatable=0;points=[[0,0.5],[1,0.5]];portConstraint=eastwest;" parent="3PEWY301-TRtVZuDDNNP-79" vertex="1">
          <mxGeometry y="111.76470588235294" width="300" height="28" as="geometry" />
        </mxCell>
        <mxCell id="3PEWY301-TRtVZuDDNNP-84" value="+ groundLayer: LayerMask" style="text;strokeColor=none;fillColor=none;align=left;verticalAlign=top;spacingLeft=4;spacingRight=4;overflow=hidden;rotatable=0;points=[[0,0.5],[1,0.5]];portConstraint=eastwest;" parent="3PEWY301-TRtVZuDDNNP-79" vertex="1">
          <mxGeometry y="139.76470588235293" width="300" height="28" as="geometry" />
        </mxCell>
        <mxCell id="3PEWY301-TRtVZuDDNNP-85" value="- _rb: Rigidbody2D" style="text;strokeColor=none;fillColor=none;align=left;verticalAlign=top;spacingLeft=4;spacingRight=4;overflow=hidden;rotatable=0;points=[[0,0.5],[1,0.5]];portConstraint=eastwest;" parent="3PEWY301-TRtVZuDDNNP-79" vertex="1">
          <mxGeometry y="167.76470588235293" width="300" height="28" as="geometry" />
        </mxCell>
        <mxCell id="3PEWY301-TRtVZuDDNNP-86" value="- _renderer: SpriteRenderer" style="text;strokeColor=none;fillColor=none;align=left;verticalAlign=top;spacingLeft=4;spacingRight=4;overflow=hidden;rotatable=0;points=[[0,0.5],[1,0.5]];portConstraint=eastwest;" parent="3PEWY301-TRtVZuDDNNP-79" vertex="1">
          <mxGeometry y="195.76470588235293" width="300" height="28" as="geometry" />
        </mxCell>
        <mxCell id="3PEWY301-TRtVZuDDNNP-87" value="- _moveValue: Vector2" style="text;strokeColor=none;fillColor=none;align=left;verticalAlign=top;spacingLeft=4;spacingRight=4;overflow=hidden;rotatable=0;points=[[0,0.5],[1,0.5]];portConstraint=eastwest;" parent="3PEWY301-TRtVZuDDNNP-79" vertex="1">
          <mxGeometry y="223.76470588235293" width="300" height="28" as="geometry" />
        </mxCell>
        <mxCell id="3PEWY301-TRtVZuDDNNP-88" value="- _faceLeft: bool = true" style="text;strokeColor=none;fillColor=none;align=left;verticalAlign=top;spacingLeft=4;spacingRight=4;overflow=hidden;rotatable=0;points=[[0,0.5],[1,0.5]];portConstraint=eastwest;" parent="3PEWY301-TRtVZuDDNNP-79" vertex="1">
          <mxGeometry y="251.76470588235293" width="300" height="28" as="geometry" />
        </mxCell>
        <mxCell id="3PEWY301-TRtVZuDDNNP-89" style="line;strokeWidth=1;fillColor=none;align=left;verticalAlign=middle;spacingTop=-1;spacingLeft=3;spacingRight=3;rotatable=0;labelPosition=right;points=[];portConstraint=eastwest;strokeColor=inherit;" parent="3PEWY301-TRtVZuDDNNP-79" vertex="1">
          <mxGeometry y="279.7647058823529" width="300" height="8" as="geometry" />
        </mxCell>
        <mxCell id="3PEWY301-TRtVZuDDNNP-90" value="+ OnJump(context: InputAction.CallbackContext) : void" style="text;strokeColor=none;fillColor=none;align=left;verticalAlign=top;spacingLeft=4;spacingRight=4;overflow=hidden;rotatable=0;points=[[0,0.5],[1,0.5]];portConstraint=eastwest;" parent="3PEWY301-TRtVZuDDNNP-79" vertex="1">
          <mxGeometry y="287.7647058823529" width="300" height="28" as="geometry" />
        </mxCell>
        <mxCell id="3PEWY301-TRtVZuDDNNP-91" value="+ OnMove(context: InputAction.CallbackContext) : void" style="text;strokeColor=none;fillColor=none;align=left;verticalAlign=top;spacingLeft=4;spacingRight=4;overflow=hidden;rotatable=0;points=[[0,0.5],[1,0.5]];portConstraint=eastwest;" parent="3PEWY301-TRtVZuDDNNP-79" vertex="1">
          <mxGeometry y="315.7647058823529" width="300" height="28" as="geometry" />
        </mxCell>
        <mxCell id="3PEWY301-TRtVZuDDNNP-92" value="- Start() : void" style="text;strokeColor=none;fillColor=none;align=left;verticalAlign=top;spacingLeft=4;spacingRight=4;overflow=hidden;rotatable=0;points=[[0,0.5],[1,0.5]];portConstraint=eastwest;" parent="3PEWY301-TRtVZuDDNNP-79" vertex="1">
          <mxGeometry y="343.7647058823529" width="300" height="28" as="geometry" />
        </mxCell>
        <mxCell id="3PEWY301-TRtVZuDDNNP-93" value="- Update() : void" style="text;strokeColor=none;fillColor=none;align=left;verticalAlign=top;spacingLeft=4;spacingRight=4;overflow=hidden;rotatable=0;points=[[0,0.5],[1,0.5]];portConstraint=eastwest;" parent="3PEWY301-TRtVZuDDNNP-79" vertex="1">
          <mxGeometry y="371.7647058823529" width="300" height="28" as="geometry" />
        </mxCell>
        <mxCell id="3PEWY301-TRtVZuDDNNP-94" value="- IsGrounded() : bool" style="text;strokeColor=none;fillColor=none;align=left;verticalAlign=top;spacingLeft=4;spacingRight=4;overflow=hidden;rotatable=0;points=[[0,0.5],[1,0.5]];portConstraint=eastwest;" parent="3PEWY301-TRtVZuDDNNP-79" vertex="1">
          <mxGeometry y="399.7647058823529" width="300" height="28" as="geometry" />
        </mxCell>
        <mxCell id="3PEWY301-TRtVZuDDNNP-95" value="- FlipPlayer() : void" style="text;strokeColor=none;fillColor=none;align=left;verticalAlign=top;spacingLeft=4;spacingRight=4;overflow=hidden;rotatable=0;points=[[0,0.5],[1,0.5]];portConstraint=eastwest;" parent="3PEWY301-TRtVZuDDNNP-79" vertex="1">
          <mxGeometry y="427.7647058823529" width="300" height="28" as="geometry" />
        </mxCell>
        <mxCell id="3PEWY301-TRtVZuDDNNP-96" value="- OnDrawGizmos() : void" style="text;strokeColor=none;fillColor=none;align=left;verticalAlign=top;spacingLeft=4;spacingRight=4;overflow=hidden;rotatable=0;points=[[0,0.5],[1,0.5]];portConstraint=eastwest;" parent="3PEWY301-TRtVZuDDNNP-79" vertex="1">
          <mxGeometry y="455.7647058823529" width="300" height="28" as="geometry" />
        </mxCell>
        <mxCell id="3PEWY301-TRtVZuDDNNP-97" value="SceneTransitioner" style="swimlane;fontStyle=1;align=center;verticalAlign=top;childLayout=stackLayout;horizontal=1;startSize=36.8;horizontalStack=0;resizeParent=1;resizeParentMax=0;resizeLast=0;collapsible=0;marginBottom=0;" parent="1" vertex="1">
          <mxGeometry x="1600" y="130.00000000000003" width="173" height="192.8" as="geometry" />
        </mxCell>
        <mxCell id="3PEWY301-TRtVZuDDNNP-98" value="- _blobCounter: int" style="text;strokeColor=none;fillColor=none;align=left;verticalAlign=top;spacingLeft=4;spacingRight=4;overflow=hidden;rotatable=0;points=[[0,0.5],[1,0.5]];portConstraint=eastwest;" parent="3PEWY301-TRtVZuDDNNP-97" vertex="1">
          <mxGeometry y="36.8" width="173" height="37" as="geometry" />
        </mxCell>
        <mxCell id="3PEWY301-TRtVZuDDNNP-99" style="line;strokeWidth=1;fillColor=none;align=left;verticalAlign=middle;spacingTop=-1;spacingLeft=3;spacingRight=3;rotatable=0;labelPosition=right;points=[];portConstraint=eastwest;strokeColor=inherit;" parent="3PEWY301-TRtVZuDDNNP-97" vertex="1">
          <mxGeometry y="73.8" width="173" height="8" as="geometry" />
        </mxCell>
        <mxCell id="3PEWY301-TRtVZuDDNNP-100" value="+ BlobEnterNextScene() : void" style="text;strokeColor=none;fillColor=none;align=left;verticalAlign=top;spacingLeft=4;spacingRight=4;overflow=hidden;rotatable=0;points=[[0,0.5],[1,0.5]];portConstraint=eastwest;" parent="3PEWY301-TRtVZuDDNNP-97" vertex="1">
          <mxGeometry y="81.8" width="173" height="37" as="geometry" />
        </mxCell>
        <mxCell id="3PEWY301-TRtVZuDDNNP-101" value="+ BlobExitNextScene() : void" style="text;strokeColor=none;fillColor=none;align=left;verticalAlign=top;spacingLeft=4;spacingRight=4;overflow=hidden;rotatable=0;points=[[0,0.5],[1,0.5]];portConstraint=eastwest;" parent="3PEWY301-TRtVZuDDNNP-97" vertex="1">
          <mxGeometry y="118.8" width="173" height="37" as="geometry" />
        </mxCell>
        <mxCell id="3PEWY301-TRtVZuDDNNP-102" value="- Start() : void" style="text;strokeColor=none;fillColor=none;align=left;verticalAlign=top;spacingLeft=4;spacingRight=4;overflow=hidden;rotatable=0;points=[[0,0.5],[1,0.5]];portConstraint=eastwest;" parent="3PEWY301-TRtVZuDDNNP-97" vertex="1">
          <mxGeometry y="155.8" width="173" height="37" as="geometry" />
        </mxCell>
        <mxCell id="3PEWY301-TRtVZuDDNNP-103" value="Transitioner" style="swimlane;fontStyle=1;align=center;verticalAlign=top;childLayout=stackLayout;horizontal=1;startSize=34.666666666666664;horizontalStack=0;resizeParent=1;resizeParentMax=0;resizeLast=0;collapsible=0;marginBottom=0;" parent="1" vertex="1">
          <mxGeometry x="1250" y="-524.5699999999999" width="224" height="217.66666666666666" as="geometry" />
        </mxCell>
        <mxCell id="3PEWY301-TRtVZuDDNNP-104" value="- _parentTransitioner: SceneTransitioner" style="text;strokeColor=none;fillColor=none;align=left;verticalAlign=top;spacingLeft=4;spacingRight=4;overflow=hidden;rotatable=0;points=[[0,0.5],[1,0.5]];portConstraint=eastwest;" parent="3PEWY301-TRtVZuDDNNP-103" vertex="1">
          <mxGeometry y="34.666666666666664" width="224" height="35" as="geometry" />
        </mxCell>
        <mxCell id="3PEWY301-TRtVZuDDNNP-105" value="- _movementBlocker: GameObject" style="text;strokeColor=none;fillColor=none;align=left;verticalAlign=top;spacingLeft=4;spacingRight=4;overflow=hidden;rotatable=0;points=[[0,0.5],[1,0.5]];portConstraint=eastwest;" parent="3PEWY301-TRtVZuDDNNP-103" vertex="1">
          <mxGeometry y="69.66666666666666" width="224" height="35" as="geometry" />
        </mxCell>
        <mxCell id="3PEWY301-TRtVZuDDNNP-106" style="line;strokeWidth=1;fillColor=none;align=left;verticalAlign=middle;spacingTop=-1;spacingLeft=3;spacingRight=3;rotatable=0;labelPosition=right;points=[];portConstraint=eastwest;strokeColor=inherit;" parent="3PEWY301-TRtVZuDDNNP-103" vertex="1">
          <mxGeometry y="104.66666666666666" width="224" height="8" as="geometry" />
        </mxCell>
        <mxCell id="3PEWY301-TRtVZuDDNNP-107" value="+ EnterNextScene() : void" style="text;strokeColor=none;fillColor=none;align=left;verticalAlign=top;spacingLeft=4;spacingRight=4;overflow=hidden;rotatable=0;points=[[0,0.5],[1,0.5]];portConstraint=eastwest;" parent="3PEWY301-TRtVZuDDNNP-103" vertex="1">
          <mxGeometry y="112.66666666666666" width="224" height="35" as="geometry" />
        </mxCell>
        <mxCell id="3PEWY301-TRtVZuDDNNP-108" value="+ ExitNextScene() : void" style="text;strokeColor=none;fillColor=none;align=left;verticalAlign=top;spacingLeft=4;spacingRight=4;overflow=hidden;rotatable=0;points=[[0,0.5],[1,0.5]];portConstraint=eastwest;" parent="3PEWY301-TRtVZuDDNNP-103" vertex="1">
          <mxGeometry y="147.66666666666666" width="224" height="35" as="geometry" />
        </mxCell>
        <mxCell id="3PEWY301-TRtVZuDDNNP-109" value="- Start() : void" style="text;strokeColor=none;fillColor=none;align=left;verticalAlign=top;spacingLeft=4;spacingRight=4;overflow=hidden;rotatable=0;points=[[0,0.5],[1,0.5]];portConstraint=eastwest;" parent="3PEWY301-TRtVZuDDNNP-103" vertex="1">
          <mxGeometry y="182.66666666666666" width="224" height="35" as="geometry" />
        </mxCell>
        <mxCell id="3PEWY301-TRtVZuDDNNP-110" value="TeleporterInteractor" style="swimlane;fontStyle=1;align=center;verticalAlign=top;childLayout=stackLayout;horizontal=1;startSize=40;horizontalStack=0;resizeParent=1;resizeParentMax=0;resizeLast=0;collapsible=0;marginBottom=0;" parent="1" vertex="1">
          <mxGeometry x="1400" y="-229.99999999999994" width="238" height="168" as="geometry" />
        </mxCell>
        <mxCell id="3PEWY301-TRtVZuDDNNP-111" value="- _parentTeleporter: Teleporter" style="text;strokeColor=none;fillColor=none;align=left;verticalAlign=top;spacingLeft=4;spacingRight=4;overflow=hidden;rotatable=0;points=[[0,0.5],[1,0.5]];portConstraint=eastwest;" parent="3PEWY301-TRtVZuDDNNP-110" vertex="1">
          <mxGeometry y="40" width="238" height="40" as="geometry" />
        </mxCell>
        <mxCell id="3PEWY301-TRtVZuDDNNP-112" style="line;strokeWidth=1;fillColor=none;align=left;verticalAlign=middle;spacingTop=-1;spacingLeft=3;spacingRight=3;rotatable=0;labelPosition=right;points=[];portConstraint=eastwest;strokeColor=inherit;" parent="3PEWY301-TRtVZuDDNNP-110" vertex="1">
          <mxGeometry y="80" width="238" height="8" as="geometry" />
        </mxCell>
        <mxCell id="3PEWY301-TRtVZuDDNNP-113" value="+ Interact(phase: InputActionPhase) : void" style="text;strokeColor=none;fillColor=none;align=left;verticalAlign=top;spacingLeft=4;spacingRight=4;overflow=hidden;rotatable=0;points=[[0,0.5],[1,0.5]];portConstraint=eastwest;" parent="3PEWY301-TRtVZuDDNNP-110" vertex="1">
          <mxGeometry y="88" width="238" height="40" as="geometry" />
        </mxCell>
        <mxCell id="3PEWY301-TRtVZuDDNNP-114" value="- Start() : void" style="text;strokeColor=none;fillColor=none;align=left;verticalAlign=top;spacingLeft=4;spacingRight=4;overflow=hidden;rotatable=0;points=[[0,0.5],[1,0.5]];portConstraint=eastwest;" parent="3PEWY301-TRtVZuDDNNP-110" vertex="1">
          <mxGeometry y="128" width="238" height="40" as="geometry" />
        </mxCell>
        <mxCell id="3PEWY301-TRtVZuDDNNP-115" value="Teleporter" style="swimlane;fontStyle=1;align=center;verticalAlign=top;childLayout=stackLayout;horizontal=1;startSize=28.571428571428573;horizontalStack=0;resizeParent=1;resizeParentMax=0;resizeLast=0;collapsible=0;marginBottom=0;" parent="1" vertex="1">
          <mxGeometry x="650" y="-739.9999999999999" width="250" height="413.57142857142856" as="geometry" />
        </mxCell>
        <mxCell id="3PEWY301-TRtVZuDDNNP-116" value="+ TeleporterTypes: enum = Blob, Box" style="text;strokeColor=none;fillColor=none;align=left;verticalAlign=top;spacingLeft=4;spacingRight=4;overflow=hidden;rotatable=0;points=[[0,0.5],[1,0.5]];portConstraint=eastwest;" parent="3PEWY301-TRtVZuDDNNP-115" vertex="1">
          <mxGeometry y="28.571428571428573" width="250" height="29" as="geometry" />
        </mxCell>
        <mxCell id="3PEWY301-TRtVZuDDNNP-117" value="+ teleporterType: TeleporterTypes" style="text;strokeColor=none;fillColor=none;align=left;verticalAlign=top;spacingLeft=4;spacingRight=4;overflow=hidden;rotatable=0;points=[[0,0.5],[1,0.5]];portConstraint=eastwest;" parent="3PEWY301-TRtVZuDDNNP-115" vertex="1">
          <mxGeometry y="57.57142857142857" width="250" height="29" as="geometry" />
        </mxCell>
        <mxCell id="3PEWY301-TRtVZuDDNNP-118" value="- _type: ActivateableType" style="text;strokeColor=none;fillColor=none;align=left;verticalAlign=top;spacingLeft=4;spacingRight=4;overflow=hidden;rotatable=0;points=[[0,0.5],[1,0.5]];portConstraint=eastwest;" parent="3PEWY301-TRtVZuDDNNP-115" vertex="1">
          <mxGeometry y="86.57142857142857" width="250" height="29" as="geometry" />
        </mxCell>
        <mxCell id="3PEWY301-TRtVZuDDNNP-119" value="- _resolver: SpriteResolver" style="text;strokeColor=none;fillColor=none;align=left;verticalAlign=top;spacingLeft=4;spacingRight=4;overflow=hidden;rotatable=0;points=[[0,0.5],[1,0.5]];portConstraint=eastwest;" parent="3PEWY301-TRtVZuDDNNP-115" vertex="1">
          <mxGeometry y="115.57142857142857" width="250" height="29" as="geometry" />
        </mxCell>
        <mxCell id="3PEWY301-TRtVZuDDNNP-120" value="- _resolverOfOutput: SpriteResolver" style="text;strokeColor=none;fillColor=none;align=left;verticalAlign=top;spacingLeft=4;spacingRight=4;overflow=hidden;rotatable=0;points=[[0,0.5],[1,0.5]];portConstraint=eastwest;" parent="3PEWY301-TRtVZuDDNNP-115" vertex="1">
          <mxGeometry y="144.57142857142856" width="250" height="29" as="geometry" />
        </mxCell>
        <mxCell id="3PEWY301-TRtVZuDDNNP-121" value="- _activeable: Activateable" style="text;strokeColor=none;fillColor=none;align=left;verticalAlign=top;spacingLeft=4;spacingRight=4;overflow=hidden;rotatable=0;points=[[0,0.5],[1,0.5]];portConstraint=eastwest;" parent="3PEWY301-TRtVZuDDNNP-115" vertex="1">
          <mxGeometry y="173.57142857142856" width="250" height="29" as="geometry" />
        </mxCell>
        <mxCell id="3PEWY301-TRtVZuDDNNP-122" value="- _activateableOfOutput: Activateable" style="text;strokeColor=none;fillColor=none;align=left;verticalAlign=top;spacingLeft=4;spacingRight=4;overflow=hidden;rotatable=0;points=[[0,0.5],[1,0.5]];portConstraint=eastwest;" parent="3PEWY301-TRtVZuDDNNP-115" vertex="1">
          <mxGeometry y="202.57142857142856" width="250" height="29" as="geometry" />
        </mxCell>
        <mxCell id="3PEWY301-TRtVZuDDNNP-123" style="line;strokeWidth=1;fillColor=none;align=left;verticalAlign=middle;spacingTop=-1;spacingLeft=3;spacingRight=3;rotatable=0;labelPosition=right;points=[];portConstraint=eastwest;strokeColor=inherit;" parent="3PEWY301-TRtVZuDDNNP-115" vertex="1">
          <mxGeometry y="231.57142857142856" width="250" height="8" as="geometry" />
        </mxCell>
        <mxCell id="3PEWY301-TRtVZuDDNNP-124" value="+ ToggleIsActive() : void" style="text;strokeColor=none;fillColor=none;align=left;verticalAlign=top;spacingLeft=4;spacingRight=4;overflow=hidden;rotatable=0;points=[[0,0.5],[1,0.5]];portConstraint=eastwest;" parent="3PEWY301-TRtVZuDDNNP-115" vertex="1">
          <mxGeometry y="239.57142857142856" width="250" height="29" as="geometry" />
        </mxCell>
        <mxCell id="3PEWY301-TRtVZuDDNNP-125" value="+ SetIsActive(isActive: bool) : void" style="text;strokeColor=none;fillColor=none;align=left;verticalAlign=top;spacingLeft=4;spacingRight=4;overflow=hidden;rotatable=0;points=[[0,0.5],[1,0.5]];portConstraint=eastwest;" parent="3PEWY301-TRtVZuDDNNP-115" vertex="1">
          <mxGeometry y="268.57142857142856" width="250" height="29" as="geometry" />
        </mxCell>
        <mxCell id="3PEWY301-TRtVZuDDNNP-126" value="+ Teleport() : void [override]" style="text;strokeColor=none;fillColor=none;align=left;verticalAlign=top;spacingLeft=4;spacingRight=4;overflow=hidden;rotatable=0;points=[[0,0.5],[1,0.5]];portConstraint=eastwest;" parent="3PEWY301-TRtVZuDDNNP-115" vertex="1">
          <mxGeometry y="297.57142857142856" width="250" height="29" as="geometry" />
        </mxCell>
        <mxCell id="3PEWY301-TRtVZuDDNNP-127" value="# OnTriggerEnter2D(other: Collider2D) : void" style="text;strokeColor=none;fillColor=none;align=left;verticalAlign=top;spacingLeft=4;spacingRight=4;overflow=hidden;rotatable=0;points=[[0,0.5],[1,0.5]];portConstraint=eastwest;" parent="3PEWY301-TRtVZuDDNNP-115" vertex="1">
          <mxGeometry y="326.57142857142856" width="250" height="29" as="geometry" />
        </mxCell>
        <mxCell id="3PEWY301-TRtVZuDDNNP-128" value="# OnTriggerExit2D(other: Collider2D) : void" style="text;strokeColor=none;fillColor=none;align=left;verticalAlign=top;spacingLeft=4;spacingRight=4;overflow=hidden;rotatable=0;points=[[0,0.5],[1,0.5]];portConstraint=eastwest;" parent="3PEWY301-TRtVZuDDNNP-115" vertex="1">
          <mxGeometry y="355.57142857142856" width="250" height="29" as="geometry" />
        </mxCell>
        <mxCell id="3PEWY301-TRtVZuDDNNP-129" value="- Awake() : void" style="text;strokeColor=none;fillColor=none;align=left;verticalAlign=top;spacingLeft=4;spacingRight=4;overflow=hidden;rotatable=0;points=[[0,0.5],[1,0.5]];portConstraint=eastwest;" parent="3PEWY301-TRtVZuDDNNP-115" vertex="1">
          <mxGeometry y="384.57142857142856" width="250" height="29" as="geometry" />
        </mxCell>
        <mxCell id="3PEWY301-TRtVZuDDNNP-130" value="" style="endArrow=block;dashed=1;endFill=0;endSize=12;html=1;rounded=0;exitX=1;exitY=0.5;exitDx=0;exitDy=0;entryX=0.5;entryY=0;entryDx=0;entryDy=0;" parent="1" source="3PEWY301-TRtVZuDDNNP-18" target="3PEWY301-TRtVZuDDNNP-3" edge="1">
          <mxGeometry width="160" relative="1" as="geometry">
            <mxPoint x="700" y="-30" as="sourcePoint" />
            <mxPoint x="860" y="-30" as="targetPoint" />
            <Array as="points">
              <mxPoint x="440" y="-75" />
              <mxPoint x="440" y="120" />
              <mxPoint x="478" y="120" />
            </Array>
          </mxGeometry>
        </mxCell>
        <mxCell id="3PEWY301-TRtVZuDDNNP-132" value="Extends" style="endArrow=block;endSize=16;endFill=0;html=1;rounded=0;exitX=0.493;exitY=0.976;exitDx=0;exitDy=0;entryX=0.5;entryY=0;entryDx=0;entryDy=0;exitPerimeter=0;" parent="1" source="3PEWY301-TRtVZuDDNNP-33" target="3PEWY301-TRtVZuDDNNP-1" edge="1">
          <mxGeometry width="160" relative="1" as="geometry">
            <mxPoint x="1670" y="10" as="sourcePoint" />
            <mxPoint x="1038" y="-210" as="targetPoint" />
            <Array as="points">
              <mxPoint x="1073" y="-220" />
              <mxPoint x="1147" y="-220" />
            </Array>
          </mxGeometry>
        </mxCell>
        <mxCell id="3PEWY301-TRtVZuDDNNP-133" value="Extends" style="endArrow=block;endSize=16;endFill=0;html=1;rounded=0;exitX=0.5;exitY=0;exitDx=0;exitDy=0;entryX=0.5;entryY=1;entryDx=0;entryDy=0;" parent="1" source="3PEWY301-TRtVZuDDNNP-34" target="3PEWY301-TRtVZuDDNNP-1" edge="1">
          <mxGeometry width="160" relative="1" as="geometry">
            <mxPoint x="1220" y="10" as="sourcePoint" />
            <mxPoint x="1380" y="10" as="targetPoint" />
            <Array as="points">
              <mxPoint x="953" />
              <mxPoint x="1147" />
            </Array>
          </mxGeometry>
        </mxCell>
        <mxCell id="3PEWY301-TRtVZuDDNNP-134" value="" style="endArrow=block;dashed=1;endFill=0;endSize=12;html=1;rounded=0;exitX=0;exitY=0.5;exitDx=0;exitDy=0;entryX=1;entryY=0.5;entryDx=0;entryDy=0;" parent="1" source="3PEWY301-TRtVZuDDNNP-40" target="3PEWY301-TRtVZuDDNNP-3" edge="1">
          <mxGeometry width="160" relative="1" as="geometry">
            <mxPoint x="710" y="245.63" as="sourcePoint" />
            <mxPoint x="870" y="245.63" as="targetPoint" />
          </mxGeometry>
        </mxCell>
        <mxCell id="3PEWY301-TRtVZuDDNNP-135" value="Extends" style="endArrow=block;endSize=16;endFill=0;html=1;rounded=0;exitX=0.72;exitY=1.023;exitDx=0;exitDy=0;entryX=0.496;entryY=-0.005;entryDx=0;entryDy=0;entryPerimeter=0;exitPerimeter=0;" parent="1" source="3PEWY301-TRtVZuDDNNP-53" target="3PEWY301-TRtVZuDDNNP-27" edge="1">
          <mxGeometry width="160" relative="1" as="geometry">
            <mxPoint x="1470" y="-230" as="sourcePoint" />
            <mxPoint x="1630" y="-230" as="targetPoint" />
            <Array as="points" />
          </mxGeometry>
        </mxCell>
        <mxCell id="3PEWY301-TRtVZuDDNNP-136" value="" style="endArrow=block;dashed=1;endFill=0;endSize=12;html=1;rounded=0;exitX=0;exitY=0.5;exitDx=0;exitDy=0;entryX=0.5;entryY=0;entryDx=0;entryDy=0;" parent="1" source="3PEWY301-TRtVZuDDNNP-51" target="3PEWY301-TRtVZuDDNNP-24" edge="1">
          <mxGeometry width="160" relative="1" as="geometry">
            <mxPoint x="1140" y="-470" as="sourcePoint" />
            <mxPoint x="1300" y="-470" as="targetPoint" />
            <Array as="points">
              <mxPoint x="500" y="-870" />
            </Array>
          </mxGeometry>
        </mxCell>
        <mxCell id="3PEWY301-TRtVZuDDNNP-137" value="" style="endArrow=block;dashed=1;endFill=0;endSize=12;html=1;rounded=0;exitX=0;exitY=0.5;exitDx=0;exitDy=0;entryX=0.5;entryY=0;entryDx=0;entryDy=0;" parent="1" source="3PEWY301-TRtVZuDDNNP-59" target="3PEWY301-TRtVZuDDNNP-3" edge="1">
          <mxGeometry width="160" relative="1" as="geometry">
            <mxPoint x="840" y="10" as="sourcePoint" />
            <mxPoint x="1000" y="10" as="targetPoint" />
            <Array as="points">
              <mxPoint x="440" y="-143" />
              <mxPoint x="440" y="120" />
              <mxPoint x="478" y="120" />
            </Array>
          </mxGeometry>
        </mxCell>
        <mxCell id="3PEWY301-TRtVZuDDNNP-138" value="" style="endArrow=block;dashed=1;endFill=0;endSize=12;html=1;rounded=0;entryX=0.465;entryY=1.009;entryDx=0;entryDy=0;entryPerimeter=0;" parent="1" target="3PEWY301-TRtVZuDDNNP-26" edge="1">
          <mxGeometry width="160" relative="1" as="geometry">
            <mxPoint x="600" y="-312" as="sourcePoint" />
            <mxPoint x="1080" y="-200" as="targetPoint" />
            <Array as="points">
              <mxPoint x="600" y="-560" />
              <mxPoint x="492" y="-560" />
            </Array>
          </mxGeometry>
        </mxCell>
        <mxCell id="3PEWY301-TRtVZuDDNNP-139" value="Extends" style="endArrow=block;endSize=16;endFill=0;html=1;rounded=0;exitX=1;exitY=0.5;exitDx=0;exitDy=0;entryX=0;entryY=0.5;entryDx=0;entryDy=0;" parent="1" source="3PEWY301-TRtVZuDDNNP-59" target="3PEWY301-TRtVZuDDNNP-1" edge="1">
          <mxGeometry width="160" relative="1" as="geometry">
            <mxPoint x="910" y="30" as="sourcePoint" />
            <mxPoint x="1070" y="30" as="targetPoint" />
          </mxGeometry>
        </mxCell>
        <mxCell id="3PEWY301-TRtVZuDDNNP-140" value="Extends" style="endArrow=block;endSize=16;endFill=0;html=1;rounded=0;exitX=0.518;exitY=1.126;exitDx=0;exitDy=0;exitPerimeter=0;entryX=0;entryY=0.5;entryDx=0;entryDy=0;" parent="1" source="3PEWY301-TRtVZuDDNNP-72" target="3PEWY301-TRtVZuDDNNP-57" edge="1">
          <mxGeometry width="160" relative="1" as="geometry">
            <mxPoint x="440" y="-250" as="sourcePoint" />
            <mxPoint x="600" y="-250" as="targetPoint" />
            <Array as="points">
              <mxPoint x="430" y="-203" />
            </Array>
          </mxGeometry>
        </mxCell>
        <mxCell id="3PEWY301-TRtVZuDDNNP-141" value="" style="endArrow=none;html=1;rounded=0;exitX=1.005;exitY=0.982;exitDx=0;exitDy=0;exitPerimeter=0;" parent="1" source="3PEWY301-TRtVZuDDNNP-67" edge="1">
          <mxGeometry width="50" height="50" relative="1" as="geometry">
            <mxPoint x="490" y="-230" as="sourcePoint" />
            <mxPoint x="430" y="-300" as="targetPoint" />
          </mxGeometry>
        </mxCell>
        <mxCell id="3PEWY301-TRtVZuDDNNP-142" value="" style="endArrow=none;html=1;rounded=0;entryX=0.5;entryY=0;entryDx=0;entryDy=0;" parent="1" target="3PEWY301-TRtVZuDDNNP-73" edge="1">
          <mxGeometry width="50" height="50" relative="1" as="geometry">
            <mxPoint x="1120" as="sourcePoint" />
            <mxPoint x="1440" y="-20" as="targetPoint" />
            <Array as="points">
              <mxPoint x="1401" />
            </Array>
          </mxGeometry>
        </mxCell>
        <mxCell id="3PEWY301-TRtVZuDDNNP-143" value="" style="endArrow=none;html=1;rounded=0;entryX=0;entryY=0.5;entryDx=0;entryDy=0;" parent="1" target="3PEWY301-TRtVZuDDNNP-84" edge="1">
          <mxGeometry width="50" height="50" relative="1" as="geometry">
            <mxPoint x="1400" y="1" as="sourcePoint" />
            <mxPoint x="1440" y="-70" as="targetPoint" />
            <Array as="points">
              <mxPoint x="1680" y="1" />
              <mxPoint x="1680" y="-226" />
            </Array>
          </mxGeometry>
        </mxCell>
        <mxCell id="3PEWY301-TRtVZuDDNNP-144" value="" style="endArrow=none;html=1;rounded=0;entryX=0.5;entryY=0;entryDx=0;entryDy=0;" parent="1" target="3PEWY301-TRtVZuDDNNP-97" edge="1">
          <mxGeometry width="50" height="50" relative="1" as="geometry">
            <mxPoint x="1570" as="sourcePoint" />
            <mxPoint x="1720" y="-70" as="targetPoint" />
            <Array as="points">
              <mxPoint x="1570" y="80" />
              <mxPoint x="1687" y="80" />
            </Array>
          </mxGeometry>
        </mxCell>
        <mxCell id="3PEWY301-TRtVZuDDNNP-145" value="Extends" style="endArrow=block;endSize=16;endFill=0;html=1;rounded=0;exitX=-0.006;exitY=0.129;exitDx=0;exitDy=0;exitPerimeter=0;entryX=1;entryY=0.5;entryDx=0;entryDy=0;" parent="1" source="3PEWY301-TRtVZuDDNNP-113" target="3PEWY301-TRtVZuDDNNP-1" edge="1">
          <mxGeometry width="160" relative="1" as="geometry">
            <mxPoint x="1340" y="-300" as="sourcePoint" />
            <mxPoint x="1500" y="-300" as="targetPoint" />
          </mxGeometry>
        </mxCell>
        <mxCell id="3PEWY301-TRtVZuDDNNP-146" value="" style="endArrow=none;html=1;rounded=0;entryX=0.544;entryY=0.97;entryDx=0;entryDy=0;entryPerimeter=0;" parent="1" target="3PEWY301-TRtVZuDDNNP-109" edge="1">
          <mxGeometry width="50" height="50" relative="1" as="geometry">
            <mxPoint x="1370" y="-140" as="sourcePoint" />
            <mxPoint x="1440" y="-330" as="targetPoint" />
          </mxGeometry>
        </mxCell>
        <mxCell id="3PEWY301-TRtVZuDDNNP-147" value="" style="endArrow=none;html=1;rounded=0;" parent="1" edge="1">
          <mxGeometry width="50" height="50" relative="1" as="geometry">
            <mxPoint x="900" y="-589" as="sourcePoint" />
            <mxPoint x="1073" y="-590" as="targetPoint" />
          </mxGeometry>
        </mxCell>
        <mxCell id="3PEWY301-TRtVZuDDNNP-150" value="" style="endArrow=block;dashed=1;endFill=0;endSize=12;html=1;rounded=0;exitX=0.597;exitY=1.094;exitDx=0;exitDy=0;exitPerimeter=0;entryX=1;entryY=0.25;entryDx=0;entryDy=0;" parent="1" source="3PEWY301-TRtVZuDDNNP-129" target="3PEWY301-TRtVZuDDNNP-3" edge="1">
          <mxGeometry width="160" relative="1" as="geometry">
            <mxPoint x="1050" y="-200" as="sourcePoint" />
            <mxPoint x="1210" y="-200" as="targetPoint" />
            <Array as="points">
              <mxPoint x="799" y="40" />
              <mxPoint x="640" y="40" />
              <mxPoint x="640" y="199" />
            </Array>
          </mxGeometry>
        </mxCell>
        <mxCell id="3PEWY301-TRtVZuDDNNP-151" value="" style="endArrow=block;dashed=1;endFill=0;endSize=12;html=1;rounded=0;exitX=0.5;exitY=0;exitDx=0;exitDy=0;entryX=0.5;entryY=0;entryDx=0;entryDy=0;" parent="1" source="3PEWY301-TRtVZuDDNNP-110" target="3PEWY301-TRtVZuDDNNP-24" edge="1">
          <mxGeometry width="160" relative="1" as="geometry">
            <mxPoint x="1090" y="-620" as="sourcePoint" />
            <mxPoint x="500" y="-710" as="targetPoint" />
            <Array as="points">
              <mxPoint x="1520" y="-760" />
              <mxPoint x="500" y="-760" />
            </Array>
          </mxGeometry>
        </mxCell>
        <mxCell id="a1SJSWDZ2O7Tf2cTPMTU-1" value="Use" style="endArrow=open;endSize=12;dashed=1;html=1;rounded=0;exitX=0.488;exitY=1.001;exitDx=0;exitDy=0;exitPerimeter=0;entryX=0;entryY=0.5;entryDx=0;entryDy=0;" edge="1" parent="1" source="3PEWY301-TRtVZuDDNNP-23" target="3PEWY301-TRtVZuDDNNP-9">
          <mxGeometry width="160" relative="1" as="geometry">
            <mxPoint x="530" y="110" as="sourcePoint" />
            <mxPoint x="690" y="110" as="targetPoint" />
            <Array as="points">
              <mxPoint x="165" y="455" />
            </Array>
          </mxGeometry>
        </mxCell>
        <mxCell id="a1SJSWDZ2O7Tf2cTPMTU-2" value="Use" style="endArrow=open;endSize=12;dashed=1;html=1;rounded=0;exitX=0;exitY=0.5;exitDx=0;exitDy=0;entryX=1;entryY=0.5;entryDx=0;entryDy=0;" edge="1" parent="1" source="3PEWY301-TRtVZuDDNNP-43" target="3PEWY301-TRtVZuDDNNP-9">
          <mxGeometry width="160" relative="1" as="geometry">
            <mxPoint x="690" y="370" as="sourcePoint" />
            <mxPoint x="850" y="370" as="targetPoint" />
            <Array as="points">
              <mxPoint x="690" y="325" />
              <mxPoint x="690" y="455" />
            </Array>
          </mxGeometry>
        </mxCell>
        <mxCell id="a1SJSWDZ2O7Tf2cTPMTU-3" value="" style="endArrow=none;dashed=1;html=1;rounded=0;entryX=0;entryY=0.5;entryDx=0;entryDy=0;" edge="1" parent="1" target="3PEWY301-TRtVZuDDNNP-67">
          <mxGeometry width="50" height="50" relative="1" as="geometry">
            <mxPoint x="160" y="260" as="sourcePoint" />
            <mxPoint x="10" y="-310" as="targetPoint" />
            <Array as="points">
              <mxPoint x="-80" y="260" />
              <mxPoint x="-80" y="-319" />
            </Array>
          </mxGeometry>
        </mxCell>
        <mxCell id="a1SJSWDZ2O7Tf2cTPMTU-4" value="" style="shape=requiredInterface;html=1;verticalLabelPosition=bottom;sketch=0;" vertex="1" parent="1">
          <mxGeometry x="710" y="30" width="10" height="18" as="geometry" />
        </mxCell>
        <mxCell id="a1SJSWDZ2O7Tf2cTPMTU-5" value="" style="shape=requiredInterface;html=1;verticalLabelPosition=bottom;sketch=0;" vertex="1" parent="1">
          <mxGeometry x="710" y="228" width="10" height="20" as="geometry" />
        </mxCell>
        <mxCell id="a1SJSWDZ2O7Tf2cTPMTU-6" value="" style="endArrow=none;dashed=1;html=1;rounded=0;entryX=0.814;entryY=0.992;entryDx=0;entryDy=0;entryPerimeter=0;" edge="1" parent="1" target="3PEWY301-TRtVZuDDNNP-64">
          <mxGeometry width="50" height="50" relative="1" as="geometry">
            <mxPoint x="710" y="30" as="sourcePoint" />
            <mxPoint x="740" y="90" as="targetPoint" />
          </mxGeometry>
        </mxCell>
        <mxCell id="a1SJSWDZ2O7Tf2cTPMTU-7" value="" style="endArrow=none;dashed=1;html=1;rounded=0;exitX=0.06;exitY=-0.06;exitDx=0;exitDy=0;exitPerimeter=0;" edge="1" parent="1" source="a1SJSWDZ2O7Tf2cTPMTU-5">
          <mxGeometry width="50" height="50" relative="1" as="geometry">
            <mxPoint x="690" y="140" as="sourcePoint" />
            <mxPoint x="710" y="50" as="targetPoint" />
          </mxGeometry>
        </mxCell>
        <mxCell id="a1SJSWDZ2O7Tf2cTPMTU-8" value="" style="endArrow=none;dashed=1;html=1;rounded=0;" edge="1" parent="1">
          <mxGeometry width="50" height="50" relative="1" as="geometry">
            <mxPoint x="710" y="250" as="sourcePoint" />
            <mxPoint x="710" y="325" as="targetPoint" />
          </mxGeometry>
        </mxCell>
        <mxCell id="a1SJSWDZ2O7Tf2cTPMTU-9" value="" style="endArrow=none;dashed=1;html=1;rounded=0;entryX=0;entryY=0.5;entryDx=0;entryDy=0;" edge="1" parent="1" target="3PEWY301-TRtVZuDDNNP-71">
          <mxGeometry width="50" height="50" relative="1" as="geometry">
            <mxPoint x="-80" y="-320" as="sourcePoint" />
            <mxPoint x="750" y="-130" as="targetPoint" />
            <Array as="points">
              <mxPoint x="-80" y="-463" />
            </Array>
          </mxGeometry>
        </mxCell>
        <mxCell id="a1SJSWDZ2O7Tf2cTPMTU-12" value="" style="shape=requiredInterface;html=1;verticalLabelPosition=bottom;sketch=0;rotation=-90;" vertex="1" parent="1">
          <mxGeometry x="595" y="-555" width="10" height="20" as="geometry" />
        </mxCell>
        <mxCell id="a1SJSWDZ2O7Tf2cTPMTU-13" value="" style="endArrow=none;dashed=1;html=1;rounded=0;exitX=0;exitY=1;exitDx=0;exitDy=0;exitPerimeter=0;" edge="1" parent="1" source="a1SJSWDZ2O7Tf2cTPMTU-12">
          <mxGeometry width="50" height="50" relative="1" as="geometry">
            <mxPoint x="620" y="-490" as="sourcePoint" />
            <mxPoint x="650" y="-540" as="targetPoint" />
          </mxGeometry>
        </mxCell>
        <mxCell id="a1SJSWDZ2O7Tf2cTPMTU-14" value="" style="endArrow=none;dashed=1;html=1;rounded=0;exitX=-0.018;exitY=-0.132;exitDx=0;exitDy=0;exitPerimeter=0;" edge="1" parent="1" source="a1SJSWDZ2O7Tf2cTPMTU-12">
          <mxGeometry width="50" height="50" relative="1" as="geometry">
            <mxPoint x="560" y="-480" as="sourcePoint" />
            <mxPoint x="242" y="-463" as="targetPoint" />
            <Array as="points">
              <mxPoint x="242" y="-540" />
            </Array>
          </mxGeometry>
        </mxCell>
        <mxCell id="a1SJSWDZ2O7Tf2cTPMTU-15" value="Use" style="endArrow=open;endSize=12;dashed=1;html=1;rounded=0;" edge="1" parent="1">
          <mxGeometry width="160" relative="1" as="geometry">
            <mxPoint x="530" as="sourcePoint" />
            <mxPoint x="530" y="160" as="targetPoint" />
          </mxGeometry>
        </mxCell>
        <mxCell id="a1SJSWDZ2O7Tf2cTPMTU-16" value="Use" style="endArrow=open;endSize=12;dashed=1;html=1;rounded=0;exitX=0;exitY=0.5;exitDx=0;exitDy=0;entryX=1.004;entryY=0.31;entryDx=0;entryDy=0;entryPerimeter=0;" edge="1" parent="1" source="3PEWY301-TRtVZuDDNNP-58" target="3PEWY301-TRtVZuDDNNP-15">
          <mxGeometry width="160" relative="1" as="geometry">
            <mxPoint x="410" y="-150" as="sourcePoint" />
            <mxPoint x="570" y="-150" as="targetPoint" />
          </mxGeometry>
        </mxCell>
        <mxCell id="a1SJSWDZ2O7Tf2cTPMTU-18" value="" style="shape=requiredInterface;html=1;verticalLabelPosition=bottom;sketch=0;" vertex="1" parent="1">
          <mxGeometry x="80" y="249" width="10" height="20" as="geometry" />
        </mxCell>
        <mxCell id="a1SJSWDZ2O7Tf2cTPMTU-20" value="Use" style="endArrow=open;endSize=12;dashed=1;html=1;rounded=0;entryX=0.284;entryY=1.082;entryDx=0;entryDy=0;entryPerimeter=0;" edge="1" parent="1" target="3PEWY301-TRtVZuDDNNP-23">
          <mxGeometry width="160" relative="1" as="geometry">
            <mxPoint x="79" y="250" as="sourcePoint" />
            <mxPoint x="1120" y="430" as="targetPoint" />
          </mxGeometry>
        </mxCell>
        <mxCell id="a1SJSWDZ2O7Tf2cTPMTU-21" value="" style="endArrow=none;dashed=1;html=1;rounded=0;exitX=0.516;exitY=1.043;exitDx=0;exitDy=0;exitPerimeter=0;" edge="1" parent="1" source="3PEWY301-TRtVZuDDNNP-46">
          <mxGeometry width="50" height="50" relative="1" as="geometry">
            <mxPoint x="30" y="320" as="sourcePoint" />
            <mxPoint x="80" y="270" as="targetPoint" />
            <Array as="points">
              <mxPoint x="959" y="560" />
              <mxPoint x="80" y="560" />
            </Array>
          </mxGeometry>
        </mxCell>
        <mxCell id="a1SJSWDZ2O7Tf2cTPMTU-22" value="" style="shape=requiredInterface;html=1;verticalLabelPosition=bottom;sketch=0;rotation=-90;" vertex="1" parent="1">
          <mxGeometry x="-85" y="-135" width="10" height="20" as="geometry" />
        </mxCell>
        <mxCell id="a1SJSWDZ2O7Tf2cTPMTU-23" value="" style="shape=requiredInterface;html=1;verticalLabelPosition=bottom;sketch=0;rotation=-90;" vertex="1" parent="1">
          <mxGeometry x="495" y="-745" width="10" height="20" as="geometry" />
        </mxCell>
        <mxCell id="a1SJSWDZ2O7Tf2cTPMTU-24" value="" style="endArrow=none;dashed=1;html=1;rounded=0;entryX=0;entryY=0.024;entryDx=0;entryDy=0;entryPerimeter=0;" edge="1" parent="1" target="3PEWY301-TRtVZuDDNNP-115">
          <mxGeometry width="50" height="50" relative="1" as="geometry">
            <mxPoint x="510" y="-730" as="sourcePoint" />
            <mxPoint x="350" y="-790" as="targetPoint" />
          </mxGeometry>
        </mxCell>
        <mxCell id="a1SJSWDZ2O7Tf2cTPMTU-25" value="" style="endArrow=none;dashed=1;html=1;rounded=0;entryX=0.1;entryY=-0.05;entryDx=0;entryDy=0;entryPerimeter=0;exitX=0;exitY=-0.05;exitDx=0;exitDy=0;exitPerimeter=0;" edge="1" parent="1" source="a1SJSWDZ2O7Tf2cTPMTU-22" target="a1SJSWDZ2O7Tf2cTPMTU-23">
          <mxGeometry width="50" height="50" relative="1" as="geometry">
            <mxPoint x="470" y="-620" as="sourcePoint" />
            <mxPoint x="520" y="-670" as="targetPoint" />
            <Array as="points">
              <mxPoint x="-120" y="-120" />
              <mxPoint x="-120" y="-731" />
            </Array>
          </mxGeometry>
        </mxCell>
        <mxCell id="a1SJSWDZ2O7Tf2cTPMTU-26" value="Use" style="endArrow=open;endSize=12;dashed=1;html=1;rounded=0;exitX=0;exitY=1;exitDx=0;exitDy=0;exitPerimeter=0;entryX=0;entryY=0.001;entryDx=0;entryDy=0;entryPerimeter=0;" edge="1" parent="1" source="a1SJSWDZ2O7Tf2cTPMTU-22" target="3PEWY301-TRtVZuDDNNP-17">
          <mxGeometry width="160" relative="1" as="geometry">
            <mxPoint x="60" y="-160" as="sourcePoint" />
            <mxPoint x="220" y="-160" as="targetPoint" />
          </mxGeometry>
        </mxCell>
        <mxCell id="a1SJSWDZ2O7Tf2cTPMTU-27" value="" style="shape=requiredInterface;html=1;verticalLabelPosition=bottom;sketch=0;rotation=-90;" vertex="1" parent="1">
          <mxGeometry x="-124" y="-656" width="10" height="20" as="geometry" />
        </mxCell>
        <mxCell id="a1SJSWDZ2O7Tf2cTPMTU-28" value="Use" style="endArrow=open;endSize=12;dashed=1;html=1;rounded=0;entryX=-0.006;entryY=0.596;entryDx=0;entryDy=0;entryPerimeter=0;" edge="1" parent="1" target="3PEWY301-TRtVZuDDNNP-24">
          <mxGeometry width="160" relative="1" as="geometry">
            <mxPoint x="-110" y="-640" as="sourcePoint" />
            <mxPoint x="70" y="-640" as="targetPoint" />
          </mxGeometry>
        </mxCell>
        <mxCell id="a1SJSWDZ2O7Tf2cTPMTU-29" value="" style="endArrow=none;dashed=1;html=1;rounded=0;exitX=0.533;exitY=0.978;exitDx=0;exitDy=0;exitPerimeter=0;" edge="1" parent="1">
          <mxGeometry width="50" height="50" relative="1" as="geometry">
            <mxPoint x="1421.0929999999998" y="359.5960000000004" as="sourcePoint" />
            <mxPoint x="-129" y="-642" as="targetPoint" />
            <Array as="points">
              <mxPoint x="1420" y="584.94" />
              <mxPoint x="-130" y="595" />
            </Array>
          </mxGeometry>
        </mxCell>
        <mxCell id="a1SJSWDZ2O7Tf2cTPMTU-33" value="" style="endArrow=diamondThin;endFill=1;endSize=24;html=1;rounded=0;entryX=0.418;entryY=0;entryDx=0;entryDy=0;entryPerimeter=0;exitX=0.215;exitY=0.993;exitDx=0;exitDy=0;exitPerimeter=0;" edge="1" parent="1" source="3PEWY301-TRtVZuDDNNP-53" target="3PEWY301-TRtVZuDDNNP-34">
          <mxGeometry width="160" relative="1" as="geometry">
            <mxPoint x="850" y="-60" as="sourcePoint" />
            <mxPoint x="1010" y="-60" as="targetPoint" />
          </mxGeometry>
        </mxCell>
        <mxCell id="a1SJSWDZ2O7Tf2cTPMTU-34" value="1" style="text;html=1;whiteSpace=wrap;strokeColor=none;fillColor=none;align=center;verticalAlign=middle;rounded=0;" vertex="1" parent="1">
          <mxGeometry x="900" y="30" width="60" height="30" as="geometry" />
        </mxCell>
        <mxCell id="a1SJSWDZ2O7Tf2cTPMTU-35" value="2" style="text;html=1;whiteSpace=wrap;strokeColor=none;fillColor=none;align=center;verticalAlign=middle;rounded=0;" vertex="1" parent="1">
          <mxGeometry x="900" y="-790" width="60" height="30" as="geometry" />
        </mxCell>
        <mxCell id="a1SJSWDZ2O7Tf2cTPMTU-36" value="" style="endArrow=diamondThin;endFill=1;endSize=24;html=1;rounded=0;exitX=1;exitY=0.5;exitDx=0;exitDy=0;entryX=1;entryY=0.5;entryDx=0;entryDy=0;" edge="1" parent="1" source="3PEWY301-TRtVZuDDNNP-104" target="3PEWY301-TRtVZuDDNNP-100">
          <mxGeometry width="160" relative="1" as="geometry">
            <mxPoint x="1630" y="-500" as="sourcePoint" />
            <mxPoint x="1790" y="-500" as="targetPoint" />
            <Array as="points">
              <mxPoint x="2040" y="-470" />
              <mxPoint x="2040" y="230" />
            </Array>
          </mxGeometry>
        </mxCell>
        <mxCell id="a1SJSWDZ2O7Tf2cTPMTU-37" value="2" style="text;html=1;whiteSpace=wrap;strokeColor=none;fillColor=none;align=center;verticalAlign=middle;rounded=0;" vertex="1" parent="1">
          <mxGeometry x="1460" y="-500" width="60" height="30" as="geometry" />
        </mxCell>
        <mxCell id="a1SJSWDZ2O7Tf2cTPMTU-38" value="1" style="text;html=1;whiteSpace=wrap;strokeColor=none;fillColor=none;align=center;verticalAlign=middle;rounded=0;" vertex="1" parent="1">
          <mxGeometry x="1754" y="198" width="60" height="30" as="geometry" />
        </mxCell>
        <mxCell id="a1SJSWDZ2O7Tf2cTPMTU-39" value="Use" style="endArrow=open;endSize=12;dashed=1;html=1;rounded=0;entryX=0.546;entryY=0.983;entryDx=0;entryDy=0;entryPerimeter=0;" edge="1" parent="1" target="3PEWY301-TRtVZuDDNNP-102">
          <mxGeometry width="160" relative="1" as="geometry">
            <mxPoint x="1560" y="340" as="sourcePoint" />
            <mxPoint x="1720" y="340" as="targetPoint" />
            <Array as="points">
              <mxPoint x="1694" y="340" />
            </Array>
          </mxGeometry>
        </mxCell>
        <mxCell id="a1SJSWDZ2O7Tf2cTPMTU-40" value="" style="endArrow=diamondThin;endFill=1;endSize=24;html=1;rounded=0;exitX=0.75;exitY=0;exitDx=0;exitDy=0;entryX=1;entryY=0.5;entryDx=0;entryDy=0;" edge="1" parent="1" source="3PEWY301-TRtVZuDDNNP-110" target="3PEWY301-TRtVZuDDNNP-117">
          <mxGeometry width="160" relative="1" as="geometry">
            <mxPoint x="1570" y="-260" as="sourcePoint" />
            <mxPoint x="1730" y="-260" as="targetPoint" />
            <Array as="points">
              <mxPoint x="1580" y="-668" />
            </Array>
          </mxGeometry>
        </mxCell>
        <mxCell id="a1SJSWDZ2O7Tf2cTPMTU-41" value="1" style="text;html=1;whiteSpace=wrap;strokeColor=none;fillColor=none;align=center;verticalAlign=middle;rounded=0;" vertex="1" parent="1">
          <mxGeometry x="1561" y="-260" width="60" height="30" as="geometry" />
        </mxCell>
        <mxCell id="a1SJSWDZ2O7Tf2cTPMTU-42" value="1" style="text;html=1;whiteSpace=wrap;strokeColor=none;fillColor=none;align=center;verticalAlign=middle;rounded=0;" vertex="1" parent="1">
          <mxGeometry x="880" y="-700" width="60" height="30" as="geometry" />
        </mxCell>
      </root>
    </mxGraphModel>
  </diagram>
</mxfile>
